<?xml version="1.0" encoding="UTF-8"?>
<!DOCTYPE svg PUBLIC "-//W3C//DTD SVG 1.1//EN" "http://www.w3.org/Graphics/SVG/1.1/DTD/svg11.dtd">
<!-- Creator: CorelDRAW -->
<svg xmlns="http://www.w3.org/2000/svg" xml:space="preserve" width="2048px" height="2048px" style="shape-rendering:geometricPrecision; text-rendering:geometricPrecision; image-rendering:optimizeQuality; fill-rule:evenodd; clip-rule:evenodd"
viewBox="0 0 2048 2048"
 xmlns:xlink="http://www.w3.org/1999/xlink">
 <defs>
  <style type="text/css">
   <![CDATA[
    .fil2 {fill:none}
    .fil1 {fill:#546E7A}
    .fil0 {fill:#90A4AE}
    .fil3 {fill:#B64911}
    .fil4 {fill:#EA771C}
    .fil7 {fill:#E3030A;fill-rule:nonzero}
    .fil6 {fill:#E95618;fill-rule:nonzero}
    .fil8 {fill:#F48C1A;fill-rule:nonzero}
    .fil5 {fill:#FF0A12;fill-rule:nonzero}
   ]]>
  </style>
   <clipPath id="id0">
    <path d="M1024 -0.0011811c565.541,0 1024,458.461 1024,1024 0,565.541 -458.461,1024 -1024,1024 -565.541,0 -1024,-458.461 -1024,-1024 0,-565.541 458.461,-1024 1024,-1024z"/>
   </clipPath>
 </defs>
 <g id="Layer_x0020_1">
  <metadata id="CorelCorpID_0Corel-Layer"/>
  <path class="fil0" d="M1024 -0.0011811c565.541,0 1024,458.461 1024,1024 0,565.541 -458.461,1024 -1024,1024 -565.541,0 -1024,-458.461 -1024,-1024 0,-565.541 458.461,-1024 1024,-1024z"/>
  <g style="clip-path:url(#id0)">
   <g id="_385695208">
    <g>
     <polygon id="_3867901521" class="fil1" points="1584,1285.62 2719.88,2421.5 2719.88,2538.17 1584,1402.29 "/>
     <polygon id="_386790344" class="fil1" points="1584,1402.29 2719.88,2538.17 2719.88,2566.46 1584,1430.58 "/>
     <polygon id="_386791592" class="fil1" points="1584,1430.58 2719.88,2566.46 2719.88,2683.13 1584,1547.24 "/>
     <polygon id="_386791256" class="fil1" points="1584,1547.24 2719.88,2683.13 2719.88,2719.88 1584,1584 "/>
     <polygon id="_386791640" class="fil1" points="1584,1584 2719.88,2719.88 1599.88,2719.88 463.999,1584 "/>
     <polygon id="_386791184" class="fil1" points="1125.06,463.999 2260.94,1599.88 2258.89,1607.19 2257.15,1614.53 2255.69,1621.91 2254.51,1629.33 2253.6,1636.77 2252.96,1644.25 2252.56,1651.76 2252.41,1659.31 2252.49,1666.88 2252.8,1674.49 2253.32,1682.12 2254.04,1689.78 2254.96,1697.48 2256.06,1705.2 2257.34,1712.94 2258.79,1720.72 2260.4,1728.52 2262.15,1736.34 2264.04,1744.19 2266.06,1752.07 2268.19,1759.97 2270.44,1767.89 2272.79,1775.83 2275.23,1783.79 2277.75,1791.78 2280.34,1799.78 2283,1807.81 2285.71,1815.85 2288.46,1823.92 2291.24,1832 2294.05,1840.1 2296.88,1848.21 1161,712.329 1158.17,704.214 1155.36,696.116 1152.58,688.035 1149.82,679.972 1147.12,671.927 1144.46,663.902 1141.87,655.896 1139.35,647.911 1136.91,639.947 1134.56,632.004 1132.31,624.083 1130.18,616.185 1128.16,608.311 1126.27,600.461 1124.51,592.635 1122.91,584.835 1121.46,577.061 1120.18,569.314 1119.08,561.595 1118.16,553.902 1117.44,546.238 1116.92,538.604 1116.61,530.999 1116.53,523.425 1116.68,515.881 1117.07,508.369 1117.72,500.891 1118.63,493.444 1119.81,486.031 1121.26,478.652 1123.01,471.307 "/>
     <polygon id="_386791352" class="fil1" points="1161,712.329 2296.88,1848.21 2297.95,1851.29 2299.03,1854.38 2300.11,1857.48 2301.19,1860.58 2302.27,1863.7 2303.35,1866.82 2304.43,1869.94 2305.51,1873.08 2306.58,1876.22 2307.66,1879.36 2308.73,1882.52 2309.79,1885.68 2310.85,1888.84 2311.91,1892.02 2312.95,1895.19 2313.99,1898.37 2315.02,1901.56 2316.05,1904.76 2317.06,1907.95 2318.06,1911.16 2319.05,1914.36 2320.03,1917.57 2320.99,1920.79 2321.94,1924.01 2322.88,1927.23 2323.8,1930.46 2324.7,1933.69 2325.59,1936.92 2326.46,1940.16 2327.31,1943.4 2328.15,1946.64 2328.96,1949.88 1193.08,814 1192.27,810.757 1191.43,807.514 1190.58,804.276 1189.71,801.04 1188.82,797.807 1187.92,794.577 1187,791.35 1186.06,788.127 1185.11,784.907 1184.14,781.692 1183.17,778.481 1182.18,775.274 1181.18,772.071 1180.16,768.873 1179.14,765.68 1178.11,762.492 1177.07,759.31 1176.03,756.133 1174.97,752.96 1173.91,749.795 1172.85,746.636 1171.78,743.482 1170.7,740.334 1169.63,737.194 1168.55,734.06 1167.47,730.933 1166.39,727.814 1165.3,724.701 1164.23,721.596 1163.15,718.499 1162.07,715.411 "/>
     <polygon id="_386792048" class="fil1" points="1584,814 2719.88,1949.88 2719.88,1986.64 1584,850.758 "/>
     <polygon id="_386792576" class="fil1" points="1584,850.758 2719.88,1986.64 2719.88,2103.31 1584,967.425 "/>
     <polygon id="_386792072" class="fil1" points="1584,967.425 2719.88,2103.31 2719.88,2131.6 1584,995.714 "/>
     <polygon id="_386791976" class="fil1" points="1584,995.714 2719.88,2131.6 2719.88,2248.26 1584,1112.38 "/>
     <polygon id="_386792096" class="fil1" points="1584,1112.38 2719.88,2248.26 2719.88,2276.55 1584,1140.67 "/>
     <polygon id="_386792120" class="fil1" points="1584,1140.67 2719.88,2276.55 2719.88,2393.22 1584,1257.33 "/>
     <polygon id="_386792144" class="fil1" points="1584,1257.33 2719.88,2393.22 2719.88,2421.5 1584,1285.62 "/>
    </g>
    <path id="_385694824" class="fil1" d="M1584 1285.62l0 116.667 0 28.2874 0 116.667 0 36.7583 -1120 0 0.0011811 -36.7583 0 -116.667 -0.0011811 -28.2874 0 -116.667 0 -28.2874 0 -116.667 0 -28.2862 0 -116.667 0 -28.2886 0 -116.667 0 -36.7583 383.538 0c6.88701,-59.576 69.8375,-102.548 20.2382,-185.759 -8.38465,-14.0658 67.5875,33.9284 82.1209,27.3744 56.4,-25.4374 97.8698,-151.423 175.162,-191.616 -23.4673,77.7686 5.75788,161.686 35.9374,248.331 11.4307,32.8205 23.5169,67.0571 32.0835,101.671l390.922 0 0 36.7583 0 116.667 0 28.2886 0 116.667 0 28.2862 0 116.667 0 28.2874z"/>
   </g>
  </g>
  <path class="fil2" d="M1024 -0.0011811c565.541,0 1024,458.461 1024,1024 0,565.541 -458.461,1024 -1024,1024 -565.541,0 -1024,-458.461 -1024,-1024 0,-565.541 458.461,-1024 1024,-1024z"/>
  <rect class="fil3" x="463.999" y="814" width="1120" height="770.001"/>
  <rect class="fil4" x="463.999" y="1430.58" width="200.598" height="116.667"/>
  <rect class="fil4" x="693.85" y="1430.58" width="200.598" height="116.667"/>
  <path class="fil4" d="M1584 1285.62l0 116.667 -224.001 0 0 -116.667 224.001 0zm-1120 116.667l0 -116.667 93.3367 0 0 116.667 -93.3367 0zm639.335 0l224.001 0 0 -116.667 -224.001 0 0 116.667zm-256.666 0l224 0 0 -116.667 -224 0 0 116.667zm-256.667 0l224 0 0 -116.667 -224 0 0 116.667z"/>
  <path class="fil4" d="M1584 1140.67l0 116.667 -93.3367 0 0 -116.667 93.3367 0zm-1120 116.667l0 -116.667 224.001 0 0 116.667 -224.001 0zm480.668 0l-224.001 0 0 -116.667 224.001 0 0 116.667zm256.666 0l-224 0 0 -116.667 224 0 0 116.667zm256.667 0l-224 0 0 -116.667 224 0 0 116.667z"/>
  <path class="fil4" d="M1584 850.758l0 116.667 -93.3367 0 0 -116.667 93.3367 0zm-1120 116.667l0 -116.667 224.001 0 0 116.667 -224.001 0zm770 -116.667l224 0 0 116.667 -224 0 0 -116.667zm-256.667 0l224 0 0 116.667 -224 0 0 -116.667zm-256.667 0l224.001 0 0 116.667 -224.001 0 0 -116.667z"/>
  <path class="fil4" d="M1584 995.714l0 116.667 -224.001 0 0 -116.667 224.001 0zm-1120 116.667l0 -116.667 93.3367 0 0 116.667 -93.3367 0zm350.002 -116.667l-224 0 0 116.667 224 0 0 -116.667zm256.667 0l-224 0 0 116.667 224 0 0 -116.667zm256.667 0l-224.001 0 0 116.667 224.001 0 0 -116.667z"/>
  <rect class="fil4" x="923.701" y="1430.58" width="200.598" height="116.667"/>
  <rect class="fil4" x="1153.55" y="1430.58" width="200.598" height="116.667"/>
  <rect class="fil4" x="1383.4" y="1430.58" width="200.598" height="116.667"/>
  <path class="fil5" d="M1172.53 1012.37c61.4209,-94.6076 22.1103,-203.458 -11.5299,-300.04 -30.1796,-86.6434 -59.4048,-170.562 -35.9362,-248.329 -77.2938,40.1918 -118.763,166.178 -175.164,191.615 -14.5335,6.55394 -90.5056,-41.4402 -82.1209,-27.3732 50.9965,85.5544 -16.9878,128.571 -20.6835,190.836 -3.98268,67.1693 -13.0913,134.836 25.9051,179.999 38.576,44.6776 90.893,74.7508 143.205,82.9548 58.5308,9.1819 117.767,-10.2709 156.324,-69.6615z"/>
  <path class="fil6" d="M869.388 994.804c1.18937,1.43858 2.39292,2.86181 3.60945,4.27205 34.3654,39.7996 79.6371,68.0115 126.095,79.4953 25.0181,-7.93701 48.9981,-23.8323 67.63,-45.4122 23.3835,-27.0815 38.0929,-62.9682 35.7048,-103.243 -3.94016,-66.404 -19.8225,-201.631 -152.53,-274.302 14.0717,46.63 -37.7611,153.659 -55.8567,205.611 -15.4866,44.4638 -31.4445,90.2883 -24.652,133.578z"/>
  <path class="fil7" d="M892.674 1019.52c33.0047,30.7819 72.9083,52.1185 113.346,60.6402 6.06378,-0.596457 12.1382,-1.5874 18.1618,-2.97992 31.5331,-7.29449 61.4339,-25.6524 81.1902,-56.3398 32.5701,-50.5996 54.8493,-117.189 -3.2752,-241.106 -18.8126,53.5016 -206.016,75.443 -213.332,207.392 -0.656693,11.8547 0.774804,22.6713 3.90945,32.3929z"/>
  <path class="fil8" d="M862.498 986.092c3.36733,4.4504 6.87048,8.7815 10.4988,12.9839 32.4945,37.6335 74.7402,64.9052 118.519,77.4721 4.44567,-1.8378 8.81812,-3.93307 13.0807,-6.28701 25.6004,-14.139 47.0445,-37.4882 56.6256,-69.0461 15.7914,-52.0311 18.6839,-115.413 -62.4804,-208.732 -2.74725,45.0756 -125.175,101.203 -136.244,193.609z"/>
 </g>
</svg>
