<svg xmlns="http://www.w3.org/2000/svg" xmlns:xlink="http://www.w3.org/1999/xlink" viewBox="0,0,256,256" width="50px" height="50px" fill-rule="nonzero"><g fill="#21e651" fill-rule="nonzero" stroke="none" stroke-width="1" stroke-linecap="butt" stroke-linejoin="miter" stroke-miterlimit="10" stroke-dasharray="" stroke-dashoffset="0" font-family="none" font-weight="none" font-size="none" text-anchor="none" style="mix-blend-mode: normal"><g transform="scale(5.12,5.12)"><path d="M17.91016,2.15039l17.30078,11.86914l8.28906,-7.58984zM16.66016,3.7207v7.19922c0.465,-0.042 7.25622,-0.58308 11.94922,5.16992c0,0 0.24055,0.23086 0.31055,0.38086c0,0.01 0.00977,0.01953 0.00977,0.01953c3.901,5.165 2.64802,10.99 2.54102,11.5l12.81836,-5.34961c0.37,-0.15 0.62109,-0.51992 0.62109,-0.91992v-13.87109l-8.93945,8.17969c-0.19,0.18 -0.42992,0.27148 -0.66992,0.27148c-0.2,0 -0.40031,-0.06164 -0.57031,-0.18164zM16.66016,12.91992c-6.21,0.51 -11.12109,5.74008 -11.12109,12.08008c0,6.68 5.44109,12.11914 12.12109,12.11914c2.02,0 3.91961,-0.49891 5.59961,-1.37891c0.85,-0.44 1.63938,-0.97937 2.35938,-1.60937c1.58,-1.37 2.8,-3.14016 3.5,-5.16016v-0.00977l-11.06836,4.61914c-0.13,0.05 -0.26063,0.07031 -0.39062,0.07031c-0.19,0 -0.38078,-0.05016 -0.55078,-0.16016c-0.28,-0.19 -0.44922,-0.49984 -0.44922,-0.83984zM18.66016,12.91992v3.07031l2.33984,-0.0293v-2.61133c-0.75,-0.22 -1.53984,-0.35969 -2.33984,-0.42969zM23,14.13086v1.80859l2,-0.01953v-0.56055c-0.62,-0.47 -1.29,-0.88852 -2,-1.22852zM27,17.89063v3.01953l2.07031,-0.01953c-0.39,-1.08 -0.92961,-2.09 -1.59961,-3zM25,17.91992l-2,0.01953v3.00977l2,-0.01953zM21,17.96094l-2.33984,0.0293v3l2.33984,-0.01953zM29.59961,22.88086l-2.59961,0.0293v3l2.75,-0.0293c0.03,-0.29 0.03906,-0.58086 0.03906,-0.88086c0,-0.72 -0.05945,-1.42914 -0.18945,-2.11914zM25,22.92969l-2,0.01953v3l2,-0.01953zM21,22.9707l-2.33984,0.01953v3l2.33984,-0.01953zM25,27.92969l-2,0.01953v1.39063l2,-0.83008zM21,27.9707l-2.33984,0.01953v3.16016l2.35938,-0.98047c-0.01,-0.05 -0.01953,-0.10992 -0.01953,-0.16992zM26.93945,35.64063c-0.76,0.66 -1.58852,1.24852 -2.47852,1.72852l9.76367,12.0918c0.3,0.35 0.73039,0.53906 1.15039,0.53906c0.34,0 0.6907,-0.11937 0.9707,-0.35937c0.63,-0.53 0.70969,-1.48133 0.17969,-2.11133z"></path></g></g></svg>