<?xml version="1.0" encoding="iso-8859-1"?>
<!-- Generator: Adobe Illustrator 19.0.0, SVG Export Plug-In . SVG Version: 6.00 Build 0)  -->
<svg xmlns="http://www.w3.org/2000/svg" xmlns:xlink="http://www.w3.org/1999/xlink" version="1.1" id="Layer_1" x="0px" y="0px" viewBox="0 0 512.006 512.006" style="enable-background:new 0 0 512.006 512.006;" xml:space="preserve">
<path style="fill:#6AC6D8;" d="M369.276,338.773c-78.6-29.053-134.642-104.656-134.642-193.354v-26.808  c-10.577-1.786-21.438-2.737-32.524-2.737c-65.718,0-123.796,32.681-158.892,82.67l-0.022,0.01  c-0.572,0.817-1.135,1.641-1.697,2.466c-0.106,0.155-0.212,0.307-0.318,0.463c-0.779,1.153-1.544,2.32-2.299,3.491  c-0.238,0.372-0.473,0.745-0.709,1.119c-0.532,0.838-1.058,1.68-1.577,2.527c-0.254,0.415-0.51,0.831-0.76,1.248  c-0.543,0.899-1.078,1.804-1.604,2.714c-0.188,0.322-0.379,0.643-0.565,0.966c-0.696,1.214-1.379,2.435-2.048,3.664  c-0.168,0.306-0.329,0.618-0.495,0.925c-0.51,0.947-1.012,1.9-1.507,2.856c-0.223,0.429-0.44,0.861-0.659,1.291  c-0.453,0.891-0.897,1.788-1.337,2.688c-0.196,0.4-0.391,0.799-0.585,1.2c-0.608,1.273-1.208,2.551-1.791,3.838  c-0.04,0.091-0.08,0.183-0.12,0.274c-0.545,1.208-1.076,2.423-1.595,3.644c-0.177,0.419-0.351,0.84-0.526,1.261  c-0.387,0.926-0.769,1.857-1.141,2.792c-0.177,0.444-0.354,0.886-0.528,1.33c-0.413,1.056-0.815,2.119-1.21,3.185  c-0.106,0.283-0.214,0.565-0.318,0.85c-0.488,1.337-0.96,2.68-1.419,4.029c-0.126,0.369-0.247,0.739-0.369,1.108  c-0.337,1.011-0.667,2.024-0.987,3.042c-0.146,0.459-0.289,0.918-0.429,1.379c-0.307,1.004-0.607,2.011-0.899,3.022  c-0.113,0.398-0.232,0.793-0.345,1.192c-0.389,1.384-0.769,2.776-1.129,4.173c-0.057,0.22-0.11,0.441-0.164,0.66  c-0.303,1.191-0.594,2.385-0.876,3.584c-0.106,0.456-0.208,0.913-0.312,1.369c-0.227,1.01-0.448,2.022-0.661,3.038  c-0.095,0.455-0.192,0.91-0.285,1.367c-0.25,1.248-0.493,2.501-0.72,3.758c-0.033,0.19-0.071,0.376-0.106,0.564  c-0.257,1.44-0.495,2.885-0.718,4.334c-0.066,0.418-0.124,0.838-0.185,1.256c-0.157,1.062-0.307,2.126-0.446,3.193  c-0.066,0.483-0.126,0.966-0.188,1.452c-0.137,1.11-0.263,2.225-0.38,3.34c-0.04,0.375-0.084,0.748-0.122,1.124  c-0.148,1.471-0.278,2.949-0.393,4.431c-0.023,0.32-0.042,0.642-0.066,0.963c-0.084,1.179-0.16,2.359-0.225,3.544  c-0.025,0.489-0.049,0.98-0.071,1.47c-0.049,1.075-0.091,2.151-0.122,3.232c-0.015,0.46-0.029,0.919-0.04,1.379  c-0.036,1.509-0.059,3.022-0.059,4.54c0,107.155,86.868,194.021,194.021,194.021c101.395,0,184.609-77.783,193.263-176.932  C387.002,331.49,378.29,335.441,369.276,338.773z"/>
<g style="opacity:0.1;">
	<path style="fill:#231F20;" d="M393.997,338.559c0.566-3.824,1.034-7.681,1.374-11.574c-4.393,2.365-8.886,4.567-13.462,6.617   C385.875,335.376,389.904,337.031,393.997,338.559z"/>
	<path style="fill:#231F20;" d="M33.372,309.895c0-1.518,0.023-3.031,0.059-4.54c0.011-0.46,0.025-0.919,0.04-1.379   c0.031-1.08,0.073-2.157,0.122-3.232c0.023-0.49,0.046-0.981,0.071-1.47c0.066-1.185,0.141-2.365,0.225-3.544   c0.023-0.32,0.042-0.642,0.066-0.963c0.115-1.482,0.247-2.96,0.393-4.431c0.038-0.376,0.082-0.749,0.122-1.124   c0.117-1.116,0.245-2.229,0.38-3.34c0.061-0.485,0.122-0.968,0.188-1.452c0.139-1.067,0.289-2.131,0.446-3.193   c0.061-0.418,0.12-0.838,0.185-1.256c0.223-1.45,0.461-2.894,0.718-4.334c0.033-0.189,0.071-0.375,0.106-0.564   c0.227-1.257,0.469-2.509,0.72-3.758c0.093-0.457,0.19-0.912,0.285-1.367c0.212-1.015,0.433-2.029,0.661-3.037   c0.103-0.457,0.206-0.914,0.312-1.369c0.282-1.199,0.572-2.393,0.876-3.584c0.055-0.219,0.108-0.44,0.164-0.66   c0.36-1.397,0.739-2.789,1.129-4.173c0.113-0.399,0.232-0.794,0.345-1.192c0.293-1.011,0.592-2.019,0.899-3.022   c0.141-0.46,0.285-0.921,0.429-1.379c0.32-1.018,0.651-2.032,0.987-3.042c0.122-0.37,0.243-0.741,0.369-1.108   c0.459-1.35,0.93-2.693,1.419-4.029c0.103-0.286,0.212-0.567,0.318-0.85c0.396-1.066,0.798-2.129,1.21-3.185   c0.175-0.444,0.351-0.886,0.528-1.33c0.373-0.935,0.753-1.865,1.141-2.792c0.175-0.421,0.349-0.842,0.526-1.261   c0.52-1.221,1.051-2.436,1.596-3.644c0.04-0.091,0.08-0.183,0.12-0.274c0.583-1.287,1.184-2.566,1.791-3.838   c0.194-0.401,0.389-0.8,0.585-1.2c0.44-0.9,0.884-1.797,1.337-2.688c0.219-0.43,0.435-0.862,0.659-1.291   c0.495-0.957,0.998-1.909,1.507-2.856c0.166-0.307,0.327-0.619,0.495-0.925c0.669-1.23,1.352-2.45,2.048-3.664   c0.185-0.323,0.377-0.645,0.565-0.966c0.526-0.91,1.061-1.815,1.604-2.714c0.25-0.417,0.506-0.833,0.76-1.248   c0.517-0.846,1.044-1.688,1.577-2.527c0.236-0.374,0.472-0.747,0.709-1.119c0.756-1.172,1.52-2.338,2.299-3.491   c0.106-0.156,0.212-0.308,0.318-0.463c0.563-0.826,1.124-1.649,1.697-2.466l0.022-0.01c32.823-46.753,85.75-78.359,146.227-82.257   c-4.173-0.272-8.378-0.413-12.619-0.413c-65.718,0-123.796,32.681-158.892,82.67l-0.022,0.01c-0.572,0.817-1.135,1.641-1.697,2.466   c-0.106,0.155-0.212,0.307-0.318,0.463c-0.779,1.153-1.544,2.32-2.299,3.491c-0.238,0.372-0.473,0.745-0.709,1.119   c-0.532,0.838-1.058,1.68-1.577,2.527c-0.254,0.415-0.51,0.831-0.76,1.248c-0.543,0.899-1.078,1.804-1.604,2.714   c-0.188,0.322-0.379,0.644-0.565,0.966c-0.696,1.214-1.379,2.435-2.048,3.664c-0.168,0.306-0.329,0.618-0.495,0.925   c-0.51,0.947-1.012,1.9-1.507,2.856c-0.223,0.429-0.44,0.861-0.659,1.291c-0.453,0.891-0.897,1.788-1.337,2.688   c-0.196,0.4-0.391,0.799-0.585,1.2c-0.608,1.273-1.208,2.551-1.791,3.838c-0.04,0.091-0.08,0.183-0.12,0.274   c-0.545,1.208-1.076,2.423-1.595,3.644c-0.177,0.419-0.351,0.84-0.526,1.261c-0.387,0.926-0.769,1.857-1.141,2.792   c-0.177,0.444-0.354,0.886-0.528,1.33c-0.413,1.056-0.815,2.119-1.21,3.185c-0.106,0.283-0.215,0.565-0.318,0.85   c-0.488,1.337-0.96,2.68-1.419,4.029c-0.126,0.369-0.247,0.739-0.369,1.108c-0.337,1.011-0.667,2.024-0.987,3.042   c-0.146,0.459-0.289,0.918-0.429,1.379c-0.307,1.004-0.607,2.011-0.899,3.022c-0.113,0.398-0.232,0.793-0.345,1.192   c-0.389,1.384-0.769,2.776-1.129,4.173c-0.057,0.22-0.11,0.441-0.164,0.66c-0.303,1.191-0.594,2.385-0.876,3.584   c-0.106,0.456-0.208,0.913-0.312,1.369c-0.227,1.01-0.448,2.022-0.661,3.038c-0.095,0.455-0.192,0.91-0.285,1.367   c-0.25,1.248-0.493,2.501-0.72,3.758c-0.033,0.19-0.071,0.376-0.106,0.564c-0.257,1.44-0.495,2.886-0.718,4.334   c-0.066,0.418-0.124,0.838-0.185,1.256c-0.157,1.062-0.307,2.126-0.446,3.193c-0.066,0.483-0.126,0.966-0.188,1.452   c-0.137,1.11-0.263,2.225-0.38,3.34c-0.04,0.375-0.084,0.748-0.122,1.124c-0.148,1.471-0.278,2.949-0.393,4.431   c-0.023,0.32-0.042,0.642-0.066,0.963c-0.084,1.179-0.16,2.359-0.225,3.544c-0.025,0.489-0.049,0.98-0.071,1.47   c-0.049,1.075-0.091,2.151-0.122,3.232c-0.015,0.46-0.029,0.919-0.04,1.379c-0.036,1.509-0.059,3.022-0.059,4.54   c0,107.155,86.868,194.021,194.021,194.021c4.257,0,8.48-0.15,12.67-0.419C113.505,496.995,33.372,412.81,33.372,309.895z"/>
</g>
<g>
	<circle style="fill:#FFFFFF;" cx="91.807" cy="307.47" r="15.898"/>
	<circle style="fill:#FFFFFF;" cx="201.936" cy="236.739" r="15.898"/>
	<circle style="fill:#FFFFFF;" cx="201.936" cy="383.052" r="15.898"/>
</g>
<path style="fill:#CCCACA;" d="M503.918,104.376V33.677c-12.623,3.101-25.815,4.758-39.394,4.758  c-35.497,0-66.838-11.238-93.72-30.35c-26.879,19.113-61.28,30.35-96.774,30.35c-13.581,0-26.771-1.657-39.396-4.758v111.742  c0,88.698,56.042,164.301,134.642,193.354c78.598-29.053,134.642-104.656,134.642-193.354v-14.455"/>
<path style="fill:#EAE8E8;" d="M369.276,44.374C318.27,71.682,264.459,67.531,264.459,67.531v15.091v32.488v20.699v11.253  c0,69.051,43.63,135.366,104.817,157.984c61.19-22.617,104.817-88.934,104.817-157.984v-11.253v-20.699V82.621V67.531  C474.092,67.531,420.284,71.682,369.276,44.374z"/>
<g style="opacity:0.1;">
	<path style="fill:#231F20;" d="M289.956,147.06v-11.253v-20.698V82.621V68.426h-7.305v-0.939   c-11.254,0.578-18.192,0.043-18.192,0.043v15.091v32.488v20.699v11.253c0,69.051,43.63,135.366,104.817,157.984   c4.341-1.605,8.592-3.437,12.748-5.468C327.616,272.992,289.956,211.211,289.956,147.06z"/>
</g>
<path style="fill:#62B07E;" d="M364.498,209.218c-4.082,0-8.002-1.632-10.88-4.541l-29.271-29.59  c-5.946-6.008-5.893-15.697,0.118-21.642c6.006-5.945,15.698-5.892,21.642,0.116l17.926,18.124l37.682-41.415  c5.688-6.251,15.366-6.708,21.619-1.019c6.251,5.687,6.708,15.366,1.019,21.617l-48.534,53.345c-2.825,3.105-6.803,4.914-11,5.001  C364.711,209.218,364.604,209.218,364.498,209.218z"/>
<g>
	<path style="fill:#231F20;" d="M503.918,112.461c4.466,0,8.084-3.62,8.084-8.084V33.677c0-2.483-1.143-4.83-3.096-6.362   c-1.955-1.533-4.507-2.081-6.917-1.489c-12.221,3.002-24.826,4.524-37.465,4.524c-32.149,0-62.105-9.709-89.035-28.855   c-2.805-1.994-6.564-1.994-9.369,0c-26.169,18.608-58.875,28.855-92.09,28.855c-12.639,0-25.244-1.522-37.468-4.524   c-2.414-0.593-4.964-0.044-6.917,1.489c-1.954,1.533-3.096,3.879-3.096,6.362v75.602c-8.127-0.984-16.313-1.49-24.44-1.49   c-0.031,0-0.063,0.001-0.094,0.001c-0.028,0-0.055-0.001-0.083-0.001c-0.072,0-0.143,0.005-0.216,0.005   c-32.059,0.059-62.708,7.406-91.1,21.849c-11.094,5.643-21.665,12.362-31.562,19.98c-0.193,0.149-0.387,0.296-0.58,0.445   c-1.212,0.94-2.412,1.895-3.603,2.862c-0.469,0.38-0.939,0.759-1.405,1.144c-0.911,0.753-1.812,1.518-2.71,2.287   c-0.676,0.577-1.352,1.153-2.02,1.74c-0.688,0.605-1.366,1.219-2.045,1.832c-0.818,0.737-1.636,1.475-2.444,2.226   c-0.535,0.498-1.058,1.007-1.588,1.511c-0.904,0.861-1.809,1.721-2.698,2.601c-0.446,0.441-0.882,0.891-1.324,1.337   c-0.936,0.941-1.87,1.882-2.789,2.843c-0.437,0.457-0.861,0.927-1.295,1.388c-0.895,0.954-1.791,1.906-2.669,2.879   c-0.673,0.746-1.325,1.508-1.985,2.262c-0.617,0.705-1.244,1.399-1.851,2.114c-1.284,1.508-2.543,3.036-3.781,4.582   c-0.205,0.255-0.402,0.521-0.606,0.777c-0.946,1.192-1.888,2.388-2.807,3.601c-0.037,0.048-0.067,0.1-0.101,0.149   c-1.329,1.759-2.637,3.539-3.912,5.347c-0.093,0.117-0.183,0.238-0.269,0.361c-0.593,0.847-1.176,1.701-1.76,2.56l-0.335,0.486   c-0.811,1.201-1.605,2.414-2.407,3.657l-0.723,1.141c-0.558,0.877-1.108,1.758-1.643,2.632c-0.268,0.435-0.537,0.875-0.79,1.299   c-0.569,0.942-1.131,1.892-1.673,2.827l-0.587,1.008c-0.728,1.267-1.439,2.54-2.122,3.795c-0.116,0.211-0.231,0.426-0.343,0.64   l-0.188,0.35c-0.53,0.986-1.054,1.978-1.561,2.959c-0.177,0.341-0.351,0.684-0.525,1.027l-0.168,0.333   c-0.472,0.927-0.933,1.86-1.389,2.793l-0.618,1.269c-0.633,1.322-1.256,2.652-1.894,4.06l-0.093,0.213   c-0.569,1.261-1.123,2.529-1.675,3.825l-0.537,1.286c-0.405,0.968-0.803,1.94-1.193,2.92l-0.549,1.381   c-0.429,1.099-0.847,2.203-1.258,3.309l-0.333,0.891c-0.509,1.394-1,2.795-1.472,4.182c-0.105,0.304-0.204,0.608-0.304,0.914   l-0.086,0.26c-0.351,1.055-0.696,2.113-1.025,3.16c-0.153,0.482-0.303,0.965-0.452,1.45c-0.32,1.043-0.631,2.091-0.943,3.17   l-0.354,1.223c-0.405,1.441-0.8,2.891-1.174,4.339l-0.171,0.69c-0.315,1.238-0.617,2.48-0.918,3.758l-0.321,1.414   c-0.237,1.049-0.467,2.101-0.69,3.166l-0.295,1.424c-0.26,1.299-0.513,2.602-0.752,3.933l-0.106,0.561   c-0.267,1.503-0.515,3.011-0.746,4.507c-0.053,0.337-0.102,0.676-0.151,1.013l-0.043,0.301c-0.165,1.109-0.322,2.222-0.462,3.299   c-0.068,0.508-0.133,1.014-0.199,1.546c-0.143,1.157-0.275,2.316-0.397,3.471l-0.127,1.177c-0.153,1.53-0.289,3.067-0.413,4.654   l-0.066,0.968c-0.087,1.222-0.166,2.448-0.236,3.704l-0.073,1.524c-0.051,1.117-0.094,2.236-0.126,3.346   c-0.016,0.481-0.031,0.961-0.042,1.436c-0.014,0.61-0.014,1.223-0.024,1.836c-0.023,0.245-0.038,0.492-0.038,0.742   c0,0.149,0.014,0.293,0.023,0.44c-0.005,0.572-0.023,1.141-0.023,1.716c0,45.311,14.989,87.187,40.268,120.93   c0.177,0.313,0.366,0.62,0.586,0.91c18.454,24.386,42.576,44.584,69.758,58.411c22.335,11.361,46.07,18.313,70.786,20.801   c0.049,0.005,0.097,0.01,0.146,0.015c1.514,0.151,3.031,0.288,4.553,0.405c0.471,0.037,0.944,0.069,1.416,0.102   c1.224,0.086,2.45,0.169,3.679,0.234c0.896,0.047,1.795,0.08,2.694,0.116c0.886,0.035,1.771,0.078,2.659,0.101   c1.689,0.045,3.384,0.069,5.082,0.073c0.1,0,0.2,0.006,0.301,0.006c0.023,0,0.044-0.001,0.067-0.001   c0.037,0,0.073,0.001,0.11,0.001c1.795,0,3.586-0.03,5.375-0.077c0.762-0.019,1.522-0.052,2.282-0.08   c0.951-0.036,1.9-0.074,2.849-0.123c1.048-0.053,2.092-0.114,3.137-0.183c0.495-0.033,0.988-0.07,1.482-0.107   c21.574-1.574,42.428-6.53,62.297-14.806c0.336-0.139,0.672-0.281,1.007-0.424c1.107-0.468,2.214-0.94,3.315-1.428   c0.887-0.392,1.769-0.8,2.651-1.206c0.647-0.299,1.297-0.585,1.94-0.89c1.61-0.761,3.209-1.55,4.8-2.354   c0.12-0.06,0.241-0.116,0.36-0.177c0.292-0.149,0.58-0.309,0.872-0.459c1.222-0.629,2.439-1.269,3.65-1.923   c0.37-0.201,0.738-0.402,1.107-0.605c1.398-0.767,2.786-1.551,4.167-2.352c0.123-0.071,0.246-0.141,0.369-0.212   c12.542-7.311,24.363-16.007,35.23-26.018c7.523-6.931,14.45-14.37,20.767-22.234c0.046-0.057,0.093-0.115,0.139-0.174   c23.909-29.823,38.911-65.815,43.091-104.124c27.43-15.445,51.156-36.793,69.672-62.907c25.734-36.298,39.336-79.079,39.336-123.72   V130.97c0-4.465-3.618-8.084-8.084-8.084s-8.084,3.62-8.084,8.084v14.455c0,73.418-41.164,140.608-104.74,174.678   c-1.648,0.882-3.306,1.746-4.979,2.582c-0.037,0.018-0.073,0.036-0.109,0.054c-1.749,0.872-3.512,1.717-5.285,2.535   c-0.089,0.041-0.178,0.084-0.268,0.125c-1.725,0.794-3.46,1.559-5.201,2.3c-0.252,0.108-0.504,0.212-0.757,0.319   c-1.733,0.73-3.473,1.44-5.219,2.117c-17.565-6.8-33.78-15.992-48.334-27.109c-0.896-1.242-2.131-2.218-3.575-2.792   c-38.467-30.806-64.653-75.348-72.32-124.674c-0.192-1.234-0.372-2.473-0.541-3.713c-0.502-3.694-0.9-7.413-1.191-11.154   c-0.018-0.241-0.033-0.484-0.051-0.725c-0.117-1.587-0.213-3.178-0.292-4.771c-0.053-1.077-0.101-2.154-0.136-3.233   c-0.018-0.546-0.034-1.094-0.047-1.642c-0.04-1.63-0.069-3.263-0.069-4.899v-20.83v-5.978v-0.001V43.679   c10.308,1.89,20.8,2.846,31.312,2.846c34.589,0,68.719-10.132,96.762-28.629c28.506,19.002,60.011,28.629,93.733,28.629   c10.512,0,21.003-0.956,31.31-2.846v60.703C495.833,108.841,499.452,112.461,503.918,112.461z M16.276,315.824h53.05   c2.536,6.802,8.075,12.147,14.995,14.427c1.269,21.939,4.585,43.145,9.754,62.89c-16.659,6.119-31.815,13.657-44.856,22.441   C29.449,387.069,17.441,352.793,16.276,315.824z M60.059,189.94c0.106-0.125,0.212-0.249,0.318-0.374   c22.382-26.322,51.51-45.696,83.842-56.316c-15.733,14.92-29.449,35.963-39.871,62.013c-0.043,0.097-0.084,0.194-0.123,0.291   c-0.293,0.736-0.582,1.478-0.87,2.222l-0.322,0.827c-0.453,1.187-0.9,2.385-1.366,3.655l-0.397,1.103   c-0.309,0.863-0.617,1.729-0.928,2.623l-0.439,1.271c-0.318,0.929-0.631,1.865-0.964,2.875l-0.303,0.915   c-0.01,0.029-0.018,0.058-0.028,0.087c-14.713-5.483-28.092-12.149-39.65-19.853C59.327,190.833,59.686,190.379,60.059,189.94z    M226.606,150.175c0.006,0.315,0.014,0.628,0.022,0.943c0.009,0.35,0.025,0.698,0.036,1.049c0.028,0.908,0.06,1.814,0.099,2.72   c0.029,0.67,0.06,1.341,0.096,2.01c0.012,0.218,0.019,0.435,0.031,0.653c0.037,0.665,0.083,1.329,0.126,1.993   c0.049,0.743,0.094,1.486,0.149,2.228c0.029,0.393,0.065,0.787,0.096,1.18c0.027,0.336,0.058,0.673,0.087,1.009   c0.003,0.033,0.005,0.067,0.009,0.1c0.135,1.57,0.286,3.137,0.454,4.7c0.027,0.245,0.051,0.489,0.078,0.733   c0.038,0.335,0.071,0.672,0.11,1.007c0.115,0.992,0.243,1.98,0.371,2.967c0.066,0.506,0.132,1.011,0.202,1.517   c0.008,0.059,0.015,0.117,0.024,0.177c0.13,0.944,0.267,1.887,0.411,2.828c0.072,0.474,0.149,0.947,0.224,1.42   c0.164,1.028,0.328,2.056,0.507,3.081c0.038,0.22,0.081,0.438,0.12,0.658c0.348,1.962,0.726,3.916,1.13,5.865   c0.135,0.653,0.266,1.307,0.407,1.959c0.102,0.473,0.205,0.946,0.312,1.42c0.04,0.182,0.086,0.361,0.127,0.543   c0.02,0.089,0.042,0.18,0.064,0.269c0.195,0.856,0.393,1.712,0.599,2.564c0.142,0.592,0.286,1.182,0.433,1.772   c0.07,0.28,0.136,0.563,0.207,0.843c0.239,0.94,0.49,1.877,0.743,2.813c0.067,0.247,0.129,0.494,0.196,0.739   c0.11,0.403,0.221,0.805,0.333,1.207c0.179,0.641,0.365,1.281,0.55,1.921c0.275,0.951,0.557,1.9,0.845,2.848   c0.236,0.777,0.471,1.555,0.716,2.33c0.217,0.683,0.445,1.364,0.668,2.045c0.582,1.777,1.187,3.545,1.814,5.304   c0.102,0.287,0.204,0.575,0.307,0.86c0.944,2.61,1.925,5.203,2.97,7.771c-5.955,0.731-11.986,1.3-18.047,1.701   c-2.511-6.324-7.633-11.337-14.034-13.694v-89.627c5.513,0.832,10.983,2.477,16.356,4.96v15.859   C226.549,147.007,226.571,148.592,226.606,150.175z M280.588,287.653c0.262,0.295,0.524,0.591,0.787,0.884   c0.593,0.658,1.186,1.314,1.787,1.965c2.889,3.143,5.861,6.197,8.92,9.151h-81.888v-40.396c6.893-2.537,12.306-8.156,14.569-15.177   c8.248-0.534,16.444-1.361,24.494-2.474C257.581,258.165,268.097,273.637,280.588,287.653z M113.941,216.268   c0.024-0.072,0.045-0.144,0.069-0.217l0.314-0.945c0.289-0.878,0.582-1.754,0.876-2.612l0.42-1.216   c0.286-0.821,0.576-1.638,0.866-2.444l0.387-1.079c0.417-1.138,0.841-2.271,1.242-3.325l0.317-0.814   c0.233-0.599,0.463-1.196,0.698-1.79c0.043-0.096,0.083-0.193,0.122-0.291c17.778-44.609,45.296-72.69,74.772-76.983v89.553   c-6.556,2.297-11.816,7.364-14.377,13.793C156.456,226.336,134.204,222.346,113.941,216.268z M194.136,236.552   c0.094-3.941,3.173-7.193,7.017-7.584c0.257-0.026,0.515-0.04,0.778-0.04c4.204,0,7.703,3.423,7.797,7.631   c0.001,0.07,0.012,0.14,0.015,0.21c-0.016,4.296-3.514,7.786-7.814,7.786c-4.301,0-7.799-3.492-7.811-7.792   C194.124,236.693,194.135,236.623,194.136,236.552z M100.814,285.009c0.075-1.04,0.16-2.076,0.251-3.18   c0.03-0.375,0.06-0.752,0.097-1.154c0.123-1.41,0.253-2.813,0.406-4.317l0.049-0.449c0.127-1.229,0.259-2.451,0.398-3.666   l0.16-1.344c0.116-0.992,0.241-1.981,0.364-2.951l0.172-1.334c0.156-1.17,0.316-2.333,0.484-3.499l0.091-0.646   c0.199-1.362,0.409-2.717,0.619-4.037l0.2-1.201c0.158-0.981,0.324-1.959,0.494-2.934l0.239-1.348   c0.176-0.987,0.358-1.971,0.547-2.964l0.199-1.066c0.253-1.313,0.514-2.62,0.787-3.93l0.177-0.83   c0.217-1.037,0.44-2.068,0.664-3.083l0.296-1.313c0.203-0.901,0.411-1.798,0.631-2.718l0.288-1.213   c0.287-1.189,0.582-2.371,0.88-3.542l0.063-0.255c0.024-0.091,0.047-0.178,0.071-0.268c21.571,6.465,45.159,10.68,69.657,12.296   c2.296,7.15,7.861,12.844,14.929,15.32v40.276h-79.539c-2.245-6.581-7.243-11.855-13.688-14.43L100.814,285.009z M179.62,391.893   c2.537,6.494,7.802,11.537,14.404,13.81v89.548c-22.292-3.217-43.521-19.959-60.479-47.974   c-7.821-12.921-14.402-27.677-19.616-43.753C134.188,397.447,156.435,393.457,179.62,391.893z M209.73,383.229   c-0.018,0.794-0.152,1.558-0.384,2.272c-0.017,0.052-0.038,0.101-0.056,0.152c-0.058,0.168-0.121,0.334-0.19,0.497   c-0.089,0.205-0.184,0.406-0.291,0.603c-0.003,0.007-0.006,0.012-0.009,0.018c-1.325,2.435-3.907,4.091-6.868,4.091   c-2.958,0-5.537-1.652-6.863-4.083c-0.013-0.025-0.025-0.051-0.038-0.077c-0.094-0.178-0.182-0.359-0.263-0.545   c-0.071-0.167-0.136-0.338-0.196-0.512c-0.016-0.046-0.035-0.092-0.051-0.138c-0.233-0.715-0.366-1.477-0.386-2.271   c-0.002-0.071-0.012-0.141-0.016-0.212c0.012-4.298,3.511-7.79,7.811-7.79c4.3,0,7.797,3.489,7.814,7.785   C209.742,383.089,209.731,383.158,209.73,383.229z M194.025,360.411c-7.068,2.476-12.633,8.17-14.929,15.32   c-24.498,1.617-48.088,5.831-69.661,12.297c-4.701-18.255-7.746-37.871-8.951-58.208c6.361-2.479,11.413-7.593,13.8-13.998h79.74   V360.411z M91.802,299.656c0.082,0.005,0.164,0.017,0.247,0.021c0.795,0.025,1.558,0.164,2.272,0.403   c0.003,0.001,0.006,0.002,0.01,0.003c0.218,0.073,0.43,0.157,0.639,0.249c0.091,0.04,0.178,0.085,0.266,0.128   c0.12,0.058,0.239,0.115,0.355,0.179c0.175,0.097,0.345,0.201,0.512,0.31c0.027,0.018,0.055,0.033,0.082,0.052   c2.071,1.407,3.434,3.78,3.434,6.466c0,4.232-3.445,7.732-7.681,7.802c-0.055,0.001-0.11,0.009-0.165,0.011   c-4.059-0.016-7.393-3.143-7.747-7.116c0.008-0.142,0.022-0.282,0.022-0.426c0-0.235-0.015-0.467-0.036-0.697   C84.236,302.934,87.639,299.657,91.802,299.656z M98.612,408.658c5.594,17.22,12.675,33.071,21.102,46.991   c7.375,12.183,15.563,22.52,24.354,30.895c-33.575-11.059-62.957-31.435-85.061-58.063   C70.555,420.791,83.918,414.136,98.612,408.658z M259.951,486.448c9.806-9.382,18.856-21.225,26.885-35.369   c7.307-12.872,13.494-27.172,18.482-42.527c14.711,5.461,28.091,12.103,39.665,19.78   C322.761,454.968,293.31,475.35,259.951,486.448z M272.774,443.098c-17.275,30.435-39.245,48.621-62.581,52.107v-89.641   c6.401-2.356,11.522-7.37,14.033-13.694c23.21,1.539,45.481,5.507,65.766,11.566C285.337,417.785,279.573,431.12,272.774,443.098z    M224.762,375.709c-2.262-7.02-7.676-12.639-14.57-15.177v-44.71h93.727c-0.437,25.298-3.67,49.705-9.436,72.114   C272.89,381.492,249.28,377.3,224.762,375.709z M16.731,295.397c0.11-1.423,0.236-2.842,0.377-4.249l0.119-1.087   c0.112-1.069,0.234-2.137,0.362-3.181c0.058-0.46,0.115-0.919,0.183-1.416c0.133-1.019,0.275-2.034,0.429-3.069l0.177-1.193   c0.212-1.386,0.44-2.768,0.686-4.142l0.102-0.549c0.219-1.206,0.452-2.408,0.689-3.59l0.274-1.317   c0.204-0.974,0.417-1.948,0.634-2.914l0.295-1.298c0.271-1.151,0.55-2.298,0.849-3.476l0.15-0.603   c0.345-1.34,0.708-2.673,1.075-3.975l0.335-1.16c0.281-0.97,0.568-1.939,0.862-2.9c0.135-0.437,0.271-0.875,0.413-1.326   c0.306-0.973,0.623-1.943,0.952-2.929l0.346-1.043c0.439-1.292,0.89-2.579,1.367-3.883l0.295-0.788   c0.379-1.023,0.766-2.044,1.154-3.037l0.515-1.297c0.356-0.892,0.72-1.782,1.098-2.686l0.498-1.192   c0.498-1.168,1.006-2.33,1.552-3.543l0.089-0.206c0.559-1.237,1.137-2.465,1.707-3.659l0.568-1.165   c0.423-0.863,0.848-1.725,1.281-2.575l0.634-1.243c0.474-0.918,0.958-1.831,1.437-2.723l0.484-0.905   c0.64-1.176,1.292-2.344,1.961-3.51l0.549-0.938c0.501-0.867,1.01-1.728,1.536-2.598c0.238-0.395,0.479-0.789,0.728-1.193   c0.494-0.807,0.996-1.61,1.518-2.433l0.666-1.051c0.725-1.124,1.458-2.243,2.205-3.349l0.3-0.437   c0.321-0.471,0.644-0.94,0.967-1.409c13.055,8.803,28.235,16.356,44.922,22.486c-0.119,0.449-0.24,0.894-0.357,1.344   c-0.016,0.063-0.031,0.124-0.046,0.188l-0.028,0.115c-0.316,1.24-0.626,2.487-0.929,3.741l-0.303,1.281   c-0.23,0.96-0.452,1.924-0.666,2.875l-0.312,1.379c-0.24,1.087-0.475,2.178-0.707,3.283l-0.181,0.853   c-0.286,1.373-0.559,2.753-0.828,4.134l-0.216,1.144c-0.197,1.041-0.389,2.085-0.575,3.124l-0.25,1.416   c-0.18,1.034-0.356,2.072-0.523,3.101l-0.203,1.227c-0.226,1.419-0.446,2.847-0.659,4.298l-0.092,0.651   c-0.177,1.221-0.345,2.446-0.509,3.67l-0.184,1.422c-0.13,1.034-0.26,2.07-0.38,3.091l-0.167,1.412   c-0.147,1.276-0.285,2.559-0.421,3.876l-0.057,0.544c-0.152,1.48-0.291,2.966-0.418,4.428c-0.039,0.428-0.073,0.859-0.11,1.315   c-0.092,1.09-0.18,2.18-0.255,3.23l-0.059,0.798c-7.25,2.277-13.021,7.912-15.496,15.071H16.456   c0.063-1.12,0.134-2.236,0.213-3.344L16.731,295.397z M354.815,415.459c-13.078-8.784-28.269-16.318-44.964-22.428   c5.775-22.096,9.206-45.977,10.07-70.695c14.373,9.819,29.975,17.891,46.553,24.019c0.904,0.334,1.854,0.501,2.804,0.501   c0.95,0,1.899-0.167,2.804-0.501c0.141-0.053,0.281-0.108,0.423-0.161c1.03-0.384,2.06-0.774,3.088-1.175   c0.758-0.295,1.51-0.6,2.265-0.904c0.362-0.147,0.725-0.289,1.088-0.437c2.188-0.895,4.357-1.827,6.507-2.791   C380.817,368.238,370.1,393.553,354.815,415.459z"/>
	<path style="fill:#231F20;" d="M351.855,147.876c-4.427-4.474-10.332-6.939-16.629-6.939c-6.2,0-12.041,2.403-16.445,6.759   c-4.443,4.393-6.908,10.254-6.943,16.501c-0.033,6.247,2.367,12.135,6.761,16.575l29.271,29.59   c4.362,4.411,10.423,6.941,16.628,6.941c0.183,0,0.371-0.001,0.488-0.005c6.385-0.133,12.512-2.918,16.812-7.643l48.533-53.344   c4.204-4.62,6.357-10.601,6.064-16.841c-0.294-6.24-3.001-11.993-7.622-16.196c-4.316-3.927-9.904-6.088-15.736-6.088   c-6.574,0-12.88,2.786-17.303,7.647l-31.947,35.112L351.855,147.876z M370.013,177.127l37.681-41.415   c1.385-1.522,3.283-2.36,5.344-2.36c1.798,0,3.523,0.667,4.855,1.879c1.426,1.298,2.261,3.073,2.353,4.999   c0.091,1.926-0.573,3.772-1.872,5.199l-48.534,53.345c-1.326,1.458-3.217,2.317-5.233,2.359H364.5   c-1.915,0-3.787-0.781-5.133-2.142L330.094,169.4c-1.356-1.37-2.096-3.187-2.087-5.115c0.011-1.928,0.772-3.737,2.144-5.095   c1.359-1.345,3.163-2.087,5.075-2.087c1.945,0,3.767,0.761,5.134,2.142l17.926,18.125c1.559,1.577,3.708,2.453,5.915,2.397   C366.419,179.721,368.52,178.766,370.013,177.127z"/>
	<path style="fill:#231F20;" d="M473.479,59.469c-0.027,0.002-2.753,0.203-7.443,0.203c-15.35,0-55.138-2.185-92.946-22.426   c-2.385-1.276-5.248-1.276-7.631,0c-37.804,20.24-77.593,22.426-92.945,22.426c-4.693,0-7.415-0.199-7.433-0.2   c-2.26-0.171-4.462,0.597-6.114,2.128c-1.652,1.531-2.592,3.68-2.592,5.933v79.529c0,35.028,10.94,70.849,30.806,100.866   c19.996,30.212,48.156,53.191,79.291,64.701c0.904,0.334,1.854,0.501,2.804,0.501s1.899-0.167,2.804-0.501   c31.137-11.51,59.297-34.487,79.293-64.701c19.866-30.017,30.805-65.838,30.805-100.866v-79.53c0-2.25-0.941-4.396-2.589-5.926   C477.936,60.075,475.713,59.31,473.479,59.469z M466.008,147.06c0,64.757-40.512,127.022-96.732,149.327   c-56.221-22.306-96.732-84.572-96.732-149.327V75.84c16.078-0.002,56.903-2.238,96.732-22.354   c39.831,20.117,80.656,22.352,96.732,22.354V147.06z"/>
</g>
<g>
</g>
<g>
</g>
<g>
</g>
<g>
</g>
<g>
</g>
<g>
</g>
<g>
</g>
<g>
</g>
<g>
</g>
<g>
</g>
<g>
</g>
<g>
</g>
<g>
</g>
<g>
</g>
<g>
</g>
</svg>
